<mxGraphModel dx="1422" dy="825" grid="1" gridSize="10" guides="1" tooltips="1" connect="1" arrows="1" fold="1" page="1" pageScale="1" pageWidth="2000" pageHeight="300" math="0" shadow="0">
  <root>
    <mxCell id="0" />
    <mxCell id="1" parent="0" />
    <mxCell id="sMq1yr1nua3YYgN81u7M-14" style="edgeStyle=orthogonalEdgeStyle;rounded=0;orthogonalLoop=1;jettySize=auto;html=1;exitX=0.5;exitY=1;exitDx=0;exitDy=0;entryX=0.5;entryY=0;entryDx=0;entryDy=0;" parent="1" source="sMq1yr1nua3YYgN81u7M-7" target="sMq1yr1nua3YYgN81u7M-11" edge="1">
      <mxGeometry relative="1" as="geometry" />
    </mxCell>
    <mxCell id="sMq1yr1nua3YYgN81u7M-7" value="Rule" style="rounded=1;whiteSpace=wrap;html=1;align=center;fillColor=#dae8fc;strokeColor=#6c8ebf;fontSize=16;fontStyle=1;strokeWidth=2;fontColor=#003366;" parent="1" vertex="1">
      <mxGeometry x="580" y="340" width="100" height="50" as="geometry" />
    </mxCell>
    <mxCell id="sMq1yr1nua3YYgN81u7M-9" style="edgeStyle=orthogonalEdgeStyle;rounded=0;orthogonalLoop=1;jettySize=auto;html=1;exitX=0.5;exitY=1;exitDx=0;exitDy=0;exitPerimeter=0;" parent="1" source="sMq1yr1nua3YYgN81u7M-8" target="sMq1yr1nua3YYgN81u7M-7" edge="1">
      <mxGeometry relative="1" as="geometry" />
    </mxCell>
    <mxCell id="sMq1yr1nua3YYgN81u7M-8" value="Log" style="shape=note;whiteSpace=wrap;html=1;backgroundOutline=1;darkOpacity=0.05;align=center;size=9;fontStyle=1" parent="1" vertex="1">
      <mxGeometry x="612.5" y="270" width="35" height="40" as="geometry" />
    </mxCell>
    <mxCell id="sMq1yr1nua3YYgN81u7M-15" style="edgeStyle=orthogonalEdgeStyle;rounded=0;orthogonalLoop=1;jettySize=auto;html=1;exitX=0.5;exitY=1;exitDx=0;exitDy=0;entryX=0.5;entryY=0;entryDx=0;entryDy=0;" parent="1" source="sMq1yr1nua3YYgN81u7M-11" target="sMq1yr1nua3YYgN81u7M-12" edge="1">
      <mxGeometry relative="1" as="geometry" />
    </mxCell>
    <mxCell id="sMq1yr1nua3YYgN81u7M-11" value="Aggregate" style="rounded=1;whiteSpace=wrap;html=1;align=center;fillColor=#d5e8d4;strokeColor=#82b366;fontSize=16;fontStyle=1;strokeWidth=2;fontColor=#006633;" parent="1" vertex="1">
      <mxGeometry x="580" y="420" width="100" height="50" as="geometry" />
    </mxCell>
    <mxCell id="sMq1yr1nua3YYgN81u7M-16" style="edgeStyle=orthogonalEdgeStyle;rounded=0;orthogonalLoop=1;jettySize=auto;html=1;exitX=0.5;exitY=1;exitDx=0;exitDy=0;entryX=0.5;entryY=0;entryDx=0;entryDy=0;endArrow=none;endFill=0;" parent="1" source="sMq1yr1nua3YYgN81u7M-12" target="sMq1yr1nua3YYgN81u7M-13" edge="1">
      <mxGeometry relative="1" as="geometry" />
    </mxCell>
    <mxCell id="sMq1yr1nua3YYgN81u7M-12" value="Snooze" style="rounded=1;whiteSpace=wrap;html=1;align=center;fillColor=#fff2cc;strokeColor=#d6b656;fontSize=16;fontStyle=1;strokeWidth=2;fontColor=#666600;" parent="1" vertex="1">
      <mxGeometry x="580" y="500" width="100" height="50" as="geometry" />
    </mxCell>
    <mxCell id="sMq1yr1nua3YYgN81u7M-13" value="&lt;font&gt;Notification&lt;/font&gt;" style="rounded=1;whiteSpace=wrap;html=1;align=center;fillColor=#f8cecc;strokeColor=#b85450;fontSize=16;fontStyle=1;strokeWidth=2;fontColor=#660000;" parent="1" vertex="1">
      <mxGeometry x="580" y="580" width="100" height="50" as="geometry" />
    </mxCell>
    <mxCell id="sMq1yr1nua3YYgN81u7M-39" style="edgeStyle=orthogonalEdgeStyle;rounded=0;orthogonalLoop=1;jettySize=auto;html=1;entryX=1;entryY=0.489;entryDx=0;entryDy=0;entryPerimeter=0;endArrow=oval;endFill=1;" parent="1" source="sMq1yr1nua3YYgN81u7M-19" target="sMq1yr1nua3YYgN81u7M-8" edge="1">
      <mxGeometry relative="1" as="geometry" />
    </mxCell>
    <mxCell id="sMq1yr1nua3YYgN81u7M-19" value="&lt;b&gt;host&lt;/b&gt;: dev-syslog01.example.com&lt;br&gt;&lt;b&gt;process&lt;/b&gt;:&amp;nbsp;sssd[2564]&lt;br&gt;&lt;b&gt;message&lt;/b&gt;: Preauthentication failed" style="rounded=0;whiteSpace=wrap;html=1;align=left;verticalAlign=middle;spacingLeft=6;" parent="1" vertex="1">
      <mxGeometry x="710" y="260" width="200" height="60" as="geometry" />
    </mxCell>
    <mxCell id="sMq1yr1nua3YYgN81u7M-33" style="edgeStyle=orthogonalEdgeStyle;rounded=0;orthogonalLoop=1;jettySize=auto;html=1;endArrow=none;endFill=0;dashed=1;" parent="1" source="sMq1yr1nua3YYgN81u7M-20" edge="1">
      <mxGeometry relative="1" as="geometry">
        <mxPoint x="630" y="405.5" as="targetPoint" />
      </mxGeometry>
    </mxCell>
    <mxCell id="sMq1yr1nua3YYgN81u7M-20" value="&lt;b style=&quot;color: rgb(0 , 0 , 0)&quot;&gt;host&lt;/b&gt;&lt;span style=&quot;color: rgb(0 , 0 , 0)&quot;&gt;: dev-syslog01.example.com&lt;/span&gt;&lt;br style=&quot;color: rgb(0 , 0 , 0)&quot;&gt;&lt;b style=&quot;color: rgb(0 , 0 , 0)&quot;&gt;process&lt;/b&gt;&lt;span style=&quot;color: rgb(0 , 0 , 0)&quot;&gt;:&amp;nbsp;sssd[2564]&lt;/span&gt;&lt;br style=&quot;color: rgb(0 , 0 , 0)&quot;&gt;&lt;b style=&quot;color: rgb(0 , 0 , 0)&quot;&gt;message&lt;/b&gt;&lt;span style=&quot;color: rgb(0 , 0 , 0)&quot;&gt;: Preauthentication failed&lt;/span&gt;&lt;br style=&quot;color: rgb(0 , 0 , 0)&quot;&gt;&lt;span style=&quot;color: rgb(0 , 0 , 0) ; background-color: rgb(255 , 255 , 102)&quot;&gt;&lt;b style=&quot;color: rgb(0 , 0 , 255)&quot;&gt;rules&lt;/b&gt;&lt;span style=&quot;color: rgb(0 , 0 , 255)&quot;&gt;: [&#39;is_development&#39;]&lt;/span&gt;&lt;br style=&quot;color: rgb(0 , 0 , 255)&quot;&gt;&lt;b style=&quot;color: rgb(0 , 0 , 255)&quot;&gt;environment&lt;/b&gt;&lt;span style=&quot;color: rgb(0 , 0 , 255)&quot;&gt;: development&lt;/span&gt;&lt;/span&gt;" style="rounded=0;whiteSpace=wrap;html=1;align=left;verticalAlign=middle;spacingLeft=6;fontColor=#666600;" parent="1" vertex="1">
      <mxGeometry x="710" y="361" width="200" height="89" as="geometry" />
    </mxCell>
    <mxCell id="sMq1yr1nua3YYgN81u7M-40" style="edgeStyle=orthogonalEdgeStyle;rounded=0;orthogonalLoop=1;jettySize=auto;html=1;endArrow=none;endFill=0;dashed=1;" parent="1" source="sMq1yr1nua3YYgN81u7M-21" edge="1">
      <mxGeometry relative="1" as="geometry">
        <mxPoint x="630" y="560" as="targetPoint" />
      </mxGeometry>
    </mxCell>
    <mxCell id="sMq1yr1nua3YYgN81u7M-21" value="&lt;b&gt;host&lt;/b&gt;: dev-syslog01.example.com&lt;br&gt;&lt;b&gt;process&lt;/b&gt;:&amp;nbsp;sssd[2564]&lt;br&gt;&lt;b&gt;message&lt;/b&gt;: Preauthentication failed&lt;br&gt;&lt;span style=&quot;background-color: rgb(255 , 255 , 102)&quot;&gt;&lt;b style=&quot;color: rgb(0 , 0 , 255)&quot;&gt;rules&lt;/b&gt;&lt;span style=&quot;color: rgb(0 , 0 , 255)&quot;&gt;: [&#39;is_development&#39;]&lt;/span&gt;&lt;br style=&quot;color: rgb(0 , 0 , 255)&quot;&gt;&lt;b style=&quot;color: rgb(0 , 0 , 255)&quot;&gt;environment&lt;/b&gt;&lt;span style=&quot;color: rgb(0 , 0 , 255)&quot;&gt;: development&lt;/span&gt;&lt;/span&gt;&lt;br&gt;&lt;span style=&quot;background-color: rgb(255 , 255 , 102)&quot;&gt;&lt;font color=&quot;#666600&quot;&gt;&lt;b&gt;snoozed&lt;/b&gt;: snooze_dev&lt;/font&gt;&lt;/span&gt;" style="rounded=0;whiteSpace=wrap;html=1;align=left;verticalAlign=middle;spacingLeft=6;" parent="1" vertex="1">
      <mxGeometry x="710" y="510" width="200" height="100" as="geometry" />
    </mxCell>
    <mxCell id="sMq1yr1nua3YYgN81u7M-29" style="edgeStyle=orthogonalEdgeStyle;rounded=0;orthogonalLoop=1;jettySize=auto;html=1;exitX=1;exitY=0.5;exitDx=0;exitDy=0;entryX=0;entryY=0.5;entryDx=0;entryDy=0;endArrow=oval;endFill=1;fillColor=#dae8fc;strokeColor=#6c8ebf;" parent="1" source="sMq1yr1nua3YYgN81u7M-22" target="sMq1yr1nua3YYgN81u7M-7" edge="1">
      <mxGeometry relative="1" as="geometry" />
    </mxCell>
    <mxCell id="sMq1yr1nua3YYgN81u7M-22" value="&lt;b&gt;name&lt;/b&gt;: is_development&lt;br&gt;&lt;b&gt;condition&lt;/b&gt;: host MATCHES ^dev.*&lt;br&gt;&lt;b&gt;modification&lt;/b&gt;: SET environment = development" style="rounded=0;whiteSpace=wrap;html=1;align=left;verticalAlign=middle;spacingLeft=6;fillColor=#dae8fc;strokeColor=#6c8ebf;fontColor=#000066;" parent="1" vertex="1">
      <mxGeometry x="280" y="335" width="270" height="60" as="geometry" />
    </mxCell>
    <mxCell id="sMq1yr1nua3YYgN81u7M-30" style="edgeStyle=orthogonalEdgeStyle;rounded=0;orthogonalLoop=1;jettySize=auto;html=1;entryX=0;entryY=0.5;entryDx=0;entryDy=0;endArrow=oval;endFill=1;fillColor=#f8cecc;fontColor=#666600;strokeColor=#999900;" parent="1" source="sMq1yr1nua3YYgN81u7M-23" target="sMq1yr1nua3YYgN81u7M-12" edge="1">
      <mxGeometry relative="1" as="geometry" />
    </mxCell>
    <mxCell id="sMq1yr1nua3YYgN81u7M-23" value="&lt;b&gt;name&lt;/b&gt;: snooze_dev&lt;br&gt;&lt;b&gt;condition&lt;/b&gt;: environment = development&lt;br&gt;&lt;b&gt;time_constraint:&lt;br&gt;&amp;nbsp; &amp;nbsp; from&lt;/b&gt;: 2020-01-01 00:00:00&lt;br&gt;&amp;nbsp; &amp;nbsp;&amp;nbsp;&lt;b&gt;to&lt;/b&gt;: 2099-01-01 00:00:00" style="rounded=0;whiteSpace=wrap;html=1;align=left;verticalAlign=middle;spacingLeft=6;fillColor=#fff2cc;strokeColor=#d6b656;fontColor=#333300;" parent="1" vertex="1">
      <mxGeometry x="280" y="482.5" width="270" height="85" as="geometry" />
    </mxCell>
    <mxCell id="sMq1yr1nua3YYgN81u7M-24" value="Action" style="rhombus;whiteSpace=wrap;html=1;align=center;fillColor=#f5f5f5;strokeColor=#666666;fontSize=14;fontStyle=0;fontColor=#333333;" parent="1" vertex="1">
      <mxGeometry x="590" y="660" width="80" height="80" as="geometry" />
    </mxCell>
    <mxCell id="sMq1yr1nua3YYgN81u7M-43" value="Snoozed alert Workflow" style="text;html=1;strokeColor=none;fillColor=none;align=center;verticalAlign=middle;whiteSpace=wrap;rounded=0;dashed=1;dashPattern=1 1;fontSize=26;fontColor=#333333;" parent="1" vertex="1">
      <mxGeometry x="522.5" y="180" width="215" height="60" as="geometry" />
    </mxCell>
    <mxCell id="oIB73naQr9OdeW-OugBB-1" value="" style="verticalLabelPosition=bottom;verticalAlign=top;html=1;shape=mxgraph.basic.x;fontSize=26;strokeWidth=2;align=left;fillColor=#f8cecc;strokeColor=#b85450;" vertex="1" parent="1">
      <mxGeometry x="618.75" y="567.5" width="21.25" height="22.5" as="geometry" />
    </mxCell>
  </root>
</mxGraphModel>
